<?xml version="1.0" encoding="utf-8"?>
<!-- Generator: Adobe Illustrator 28.0.0, SVG Export Plug-In . SVG Version: 6.00 Build 0)  -->
<svg version="1.1" id="Layer_1" xmlns="http://www.w3.org/2000/svg" xmlns:xlink="http://www.w3.org/1999/xlink" x="0px" y="0px"
	 viewBox="0 0 24 24" style="enable-background:new 0 0 24 24;" xml:space="preserve">
<style type="text/css">
	.st0{fill-rule:evenodd;clip-rule:evenodd;fill:#FFFFFF;}
</style>
<path class="st0" d="M9,23c0,0,0-1.5,0-2.8c-3.7,0.7-4.7-0.9-5-1.7c-0.2-0.4-0.9-1.7-1.5-2.1c-0.5-0.3-1.3-1,0-1
	c1.2,0,2,1.1,2.3,1.5c1.3,2.2,3.5,1.6,4.3,1.2c0.1-1,0.5-1.6,0.9-2c-3.3-0.4-6.7-1.6-6.7-7.3c0-1.6,0.6-2.9,1.5-4
	C4.7,4.6,4.2,3.1,5,1C5,1,6.2,0.6,9,2.5c1.2-0.3,2.4-0.5,3.7-0.5c1.3,0,2.5,0.2,3.7,0.5C19.3,0.6,20.5,1,20.5,1
	c0.8,2,0.3,3.5,0.1,3.9c0.9,1,1.5,2.3,1.5,4c0,5.7-3.5,6.9-6.7,7.3c0.5,0.5,1,1.3,1,2.7c0,2,0,4.1,0,4.1H9z"/>
</svg>
