<?xml version="1.0" encoding="utf-8"?>
<!-- Generator: Adobe Illustrator 28.0.0, SVG Export Plug-In . SVG Version: 6.00 Build 0)  -->
<svg version="1.1" id="Layer_1" xmlns="http://www.w3.org/2000/svg" xmlns:xlink="http://www.w3.org/1999/xlink" x="0px" y="0px"
	 viewBox="0 0 28 28" style="enable-background:new 0 0 28 28;" xml:space="preserve">
<style type="text/css">
	.st0{fill:#FFFFFF;}
</style>
<g>
	<path class="st0" d="M6.4,13.4c0-0.1,0-0.3,0.1-0.4c0.1-0.1,0.1-0.3,0.2-0.4c0.1-0.1,0.2-0.2,0.4-0.2c0.1-0.1,0.3-0.1,0.4-0.1
		l1.8,0c0.3,0,0.6,0.1,0.8,0.3c0.2,0.2,0.3,0.5,0.3,0.8v6.9c0.2-0.1,0.5-0.1,0.8-0.2c0.2,0,0.4-0.2,0.5-0.3c0.1-0.2,0.2-0.4,0.2-0.6
		v-8.6c0-0.3,0.1-0.6,0.3-0.8c0.2-0.2,0.5-0.3,0.8-0.3h1.8c0.3,0,0.6,0.1,0.8,0.3c0.2,0.2,0.3,0.5,0.3,0.8v8c0,0,0.5-0.2,0.9-0.4
		c0.2-0.1,0.3-0.2,0.4-0.3c0.1-0.2,0.2-0.3,0.2-0.5V7.8c0-0.3,0.1-0.6,0.3-0.8c0.2-0.2,0.5-0.3,0.8-0.3h1.8c0.3,0,0.6,0.1,0.8,0.3
		c0.2,0.2,0.3,0.5,0.3,0.8v7.8c1.6-1.2,3.2-2.5,4.5-4.2c0.2-0.2,0.3-0.5,0.4-0.8c0-0.3,0-0.6-0.1-0.9c-0.6-1.7-1.5-3.3-2.8-4.6
		c-1.2-1.3-2.7-2.4-4.4-3.1c-1.7-0.7-3.5-1.1-5.3-1C12,1,10.2,1.4,8.6,2.2C7,2.9,5.5,4,4.3,5.4C3.1,6.7,2.2,8.3,1.6,10
		c-0.6,1.7-0.7,3.5-0.6,5.3s0.8,3.5,1.7,5.1c0.2,0.3,0.4,0.5,0.7,0.6c0.3,0.1,0.6,0.2,0.9,0.2c0.3,0,0.8-0.1,1.3-0.1
		c0.2,0,0.4-0.1,0.6-0.3c0.2-0.2,0.2-0.4,0.2-0.6L6.4,13.4z"/>
	<path class="st0" d="M6.4,24.5c1.9,1.4,4.2,2.3,6.6,2.4c2.4,0.2,4.8-0.3,6.9-1.4c2.1-1.1,3.9-2.7,5.2-4.8c1.3-2,1.9-4.4,1.9-6.8
		c0-0.3,0-0.6,0-0.9C22.2,20.2,13.5,23.5,6.4,24.5"/>
</g>
</svg>
