<?xml version="1.0" encoding="utf-8"?>
<!-- Generator: Adobe Illustrator 28.0.0, SVG Export Plug-In . SVG Version: 6.00 Build 0)  -->
<svg version="1.1" id="Layer_1" xmlns="http://www.w3.org/2000/svg" xmlns:xlink="http://www.w3.org/1999/xlink" x="0px" y="0px"
	 viewBox="0 0 25.6 28" style="enable-background:new 0 0 25.6 28;" xml:space="preserve">
<style type="text/css">
	.st0{fill:#FFFFFF;}
	.st1{fill:#FFFFFF;fill-opacity:0.33;}
</style>
<path class="st0" d="M23.8,1h-22C1.4,1,1,1.4,1,1.8v21.9c0,0.4,0.4,0.8,0.8,0.8h0.8c0.4,0,0.8,0.4,0.8,0.8v0.8
	C3.5,26.6,3.8,27,4.3,27h19.5c0.4,0,0.8-0.4,0.8-0.8V1.8C24.6,1.4,24.2,1,23.8,1z M22.1,24.6H5.9v-2.4H3.5V3.4h18.7v21.2H22.1z"/>
<path class="st1" d="M23.8,1h-22C1.4,1,1,1.4,1,1.8v21.9c0,0.4,0.4,0.8,0.8,0.8h0.8c0.4,0,0.8,0.4,0.8,0.8v0.8
	C3.5,26.6,3.8,27,4.3,27h19.5c0.4,0,0.8-0.4,0.8-0.8V1.8C24.6,1.4,24.2,1,23.8,1z M22.1,24.6H5.9v-2.4H3.5V3.4h18.7v21.2H22.1z"/>
<g>
	<polygon class="st0" points="13.2,14.8 15.6,14.8 15.6,12.4 13.2,12.4 10.8,12.4 10.8,9.9 13.2,9.9 15.6,9.9 15.6,7.5 13.2,7.5 
		10.8,7.5 8.3,7.5 8.3,9.9 8.3,12.4 8.3,14.8 8.3,17.2 10.8,17.2 10.8,14.8 	"/>
	<polygon class="st0" points="15.6,17.2 13.2,17.2 10.8,17.2 10.8,19.6 13.2,19.6 15.6,19.6 18,19.6 18,17.2 	"/>
</g>
</svg>
