<?xml version="1.0" encoding="utf-8"?>
<!-- Generator: Adobe Illustrator 28.0.0, SVG Export Plug-In . SVG Version: 6.00 Build 0)  -->
<svg version="1.1" id="Layer_1" xmlns="http://www.w3.org/2000/svg" xmlns:xlink="http://www.w3.org/1999/xlink" x="0px" y="0px"
	 viewBox="0 0 28 28" style="enable-background:new 0 0 28 28;" xml:space="preserve">
<style type="text/css">
	.st0{fill:#FFFFFF;}
</style>
<g>
	<path class="st0" d="M27,17v1.3c0,0.1,0,0.2-0.1,0.2c-0.4,0.2-1.9,0.9-2.5,1.7c-1.5,2.1-2.7,5.5-5.3,5.5h-11
		c-3.9,0-7.1-3.1-7.1-7.2c0-0.1,0.1-0.2,0.2-0.2h5.2c0.2,0,0.3,0.1,0.3,0.3v1c0,0.5,0.4,1,1,1h3.9v-2.3H8.9c1.5-2,2.5-4.4,2.5-7.1
		c0-3-1.2-5.7-3-7.8c1.1,0.1,2.2,0.4,3.3,0.7V3.5c0-0.7,0.5-1.2,1.2-1.2c0.7,0,1.2,0.5,1.2,1.2V5c3.7,1.7,6.1,4.6,6.1,7.8
		c0,1.9-0.8,3.6-2.3,5.1c-0.3,0.3-0.7,0.4-1.1,0.4H14v2.3h3.5c0.8,0,2.1-1.4,2.7-2.3c0,0,0,0,0.1-0.1c0.1,0,6.4-1.5,6.4-1.5
		C26.9,16.8,27,16.9,27,17z"/>
	<path class="st0" d="M9.4,11.2c0,1.8-0.5,3.5-1.4,4.8H1.5l6-10.3C8.6,7.3,9.4,9.2,9.4,11.2z"/>
</g>
</svg>
