<?xml version="1.0" encoding="utf-8"?>
<!-- Generator: Adobe Illustrator 28.0.0, SVG Export Plug-In . SVG Version: 6.00 Build 0)  -->
<svg version="1.1" id="Layer_2_00000031927761300651403480000016176006991569944248_"
	 xmlns="http://www.w3.org/2000/svg" xmlns:xlink="http://www.w3.org/1999/xlink" x="0px" y="0px" viewBox="0 0 100 19.2"
	 style="enable-background:new 0 0 100 19.2;" xml:space="preserve">
<style type="text/css">
	.st0{fill:#FFFFFF;}
</style>
<g>
	<path class="st0" d="M3.8,15.4h15.4v3.8H3.8L0,15.4V7.7l3.8-3.8h15.4v3.8H3.8V15.4z"/>
	<path class="st0" d="M38.5,3.8l3.8,3.8v7.7l-3.8,3.8H26.9l-3.8-3.8V7.7l3.8-3.8H38.5z M38.5,15.4V7.7H26.9v7.7H38.5z"/>
	<path class="st0" d="M53.8,15.4v3.8H50l-3.8-3.8V0H50v15.4H53.8z"/>
	<path class="st0" d="M65.4,15.4v3.8h-3.8l-3.8-3.8V0h3.8v15.4H65.4z"/>
	<path class="st0" d="M80.8,0v3.8h-7.7v1.9h3.8v3.8h-3.8v9.6h-3.8V9.6h-3.8V5.8h3.8V3.8L73.1,0H80.8z"/>
	<path class="st0" d="M96.2,3.8l3.8,3.8v7.7l-3.8,3.8H84.6l-3.8-3.8V7.7l3.8-3.8H96.2z M96.2,15.4V7.7H84.6v7.7H96.2z"/>
</g>
</svg>
